<svg width="21" height="16" viewBox="0 0 21 16" fill="none" xmlns="http://www.w3.org/2000/svg">
<path d="M2.64746 16C2.09746 16 1.62679 15.8043 1.23546 15.413C0.844128 15.0217 0.648128 14.5507 0.647461 14V2C0.647461 1.45 0.843461 0.979333 1.23546 0.588C1.62746 0.196666 2.09813 0.000666667 2.64746 0H18.6475C19.1975 0 19.6685 0.196 20.0605 0.588C20.4525 0.98 20.6481 1.45067 20.6475 2V14C20.6475 14.55 20.4518 15.021 20.0605 15.413C19.6691 15.805 19.1981 16.0007 18.6475 16H2.64746ZM18.6475 4L11.1725 8.675C11.0891 8.725 11.0018 8.76267 10.9105 8.788C10.8191 8.81333 10.7315 8.82567 10.6475 8.825C10.5635 8.82433 10.4761 8.812 10.3855 8.788C10.2948 8.764 10.2071 8.72633 10.1225 8.675L2.64746 4V14H18.6475V4ZM10.6475 7L18.6475 2H2.64746L10.6475 7ZM2.64746 4.25V2.775V2.8V2.788V4.25Z" fill="black"/>
</svg>
