<svg width="880" height="1178" viewBox="0 0 880 1178" fill="none" xmlns="http://www.w3.org/2000/svg">
<path d="M880 447.379C880 447.379 358.411 389.2 366.703 471.853C373.709 541.692 746.836 541.692 746.836 541.692C873.663 558.191 880 583.563 880 668.429V851.684C880 1031.9 681.676 1178 440 1178C198.324 1178 0 1031.9 0 851.684V726.743C0 726.743 453.784 769.021 453.784 699.621C453.784 640.353 225.616 648.515 158.991 652.162C146.876 652.825 134.775 652.637 122.722 651.237C7.38736 637.836 0 625.64 0 525.252V326.316C0 146.097 198.324 0 440 0C681.676 0 880 146.097 880 326.316V447.379Z" fill="black"/>
</svg>
