<svg width="18" height="18" viewBox="0 0 18 18" fill="none" xmlns="http://www.w3.org/2000/svg">
<path d="M3.62239 7.86983C4.96739 10.5131 7.13434 12.6707 9.77763 14.0251L11.8325 11.9702C12.0847 11.718 12.4583 11.634 12.7852 11.746C13.8313 12.0916 14.9615 12.2784 16.1197 12.2784C16.6334 12.2784 17.0537 12.6988 17.0537 13.2125V16.4722C17.0537 16.9859 16.6334 17.4062 16.1197 17.4062C7.34916 17.4062 0.241211 10.2983 0.241211 1.52778C0.241211 1.01406 0.661523 0.59375 1.17524 0.59375H4.44434C4.95805 0.59375 5.37836 1.01406 5.37836 1.52778C5.37836 2.69531 5.56517 3.81615 5.91076 4.86226C6.0135 5.18917 5.93878 5.55344 5.67725 5.81497L3.62239 7.86983Z" fill="black"/>
</svg>
