<svg width="23" height="26" viewBox="0 0 23 26" fill="none" xmlns="http://www.w3.org/2000/svg">
<path d="M5.4187 0.53186C5.67735 0.47469 5.94496 0.469113 6.20581 0.515259L20.4519 3.03088C20.7128 3.07634 20.9626 3.17226 21.1863 3.31409C21.41 3.45601 21.6042 3.64127 21.7566 3.85803C21.9089 4.07471 22.0171 4.31931 22.075 4.57776C22.1184 4.77183 22.1327 4.97098 22.1179 5.16858L22.0935 5.36487L18.8396 23.8492C18.7577 24.317 18.5128 24.7411 18.1492 25.0465C17.7856 25.3517 17.326 25.5184 16.8513 25.5182C16.7917 25.5182 16.7319 25.5156 16.6726 25.5104L16.4958 25.4869L2.24976 22.9713C1.72308 22.8783 1.25481 22.5803 0.947998 22.1422C0.641186 21.7041 0.520389 21.1621 0.613037 20.6354L3.86694 2.151C3.91298 1.89006 4.01068 1.64106 4.15308 1.4176C4.29549 1.19414 4.47992 1.0002 4.69702 0.848267C4.91417 0.696321 5.15993 0.589109 5.4187 0.53186ZM6.04272 2.97815L2.93921 20.5992L2.90991 20.7672L3.07788 20.7965L16.4617 23.1598L16.6296 23.1891L16.6589 23.0221L19.7615 5.401L19.7908 5.23303L19.6238 5.20374L6.23999 2.84045L6.07202 2.81018L6.04272 2.97815ZM6.51929 14.2369C6.76743 14.0633 7.07454 13.9949 7.3728 14.0475L11.0515 14.6989H11.0525C11.3338 14.7482 11.5863 14.9012 11.7605 15.1276C11.9347 15.3542 12.0177 15.6387 11.9929 15.9235C11.9681 16.2081 11.8382 16.4735 11.6277 16.6666C11.417 16.8598 11.1411 16.9664 10.8552 16.9664C10.7885 16.9665 10.7216 16.9609 10.656 16.9489H10.655L6.97925 16.2994H6.97827C6.83021 16.2737 6.68816 16.2189 6.56128 16.1383C6.43454 16.0577 6.32523 15.9527 6.23901 15.8297C6.15276 15.7067 6.09087 15.5682 6.05835 15.4215C6.02584 15.2747 6.02328 15.1223 6.04956 14.9742C6.10229 14.676 6.27115 14.4106 6.51929 14.2369ZM7.69312 9.74866C7.83967 9.71626 7.99162 9.71369 8.1394 9.73987L15.491 11.0377V11.0387C15.7719 11.0893 16.0239 11.2434 16.197 11.4703C16.3701 11.6973 16.4519 11.981 16.4265 12.2653C16.4011 12.5495 16.27 12.8139 16.0593 13.0065C15.8487 13.1991 15.5733 13.3063 15.2878 13.3063C15.2543 13.3062 15.2207 13.3043 15.1873 13.3014L15.0876 13.2887L7.73608 11.9889C7.43906 11.935 7.17534 11.7659 7.00269 11.5182C6.82983 11.2701 6.76253 10.9634 6.81519 10.6656C6.84129 10.5181 6.8958 10.377 6.97632 10.2506C7.05698 10.1241 7.16198 10.0144 7.28491 9.92834C7.40784 9.84236 7.54664 9.78106 7.69312 9.74866ZM8.03979 5.62073C8.28794 5.44707 8.59503 5.3787 8.89331 5.43127L16.2429 6.7301H16.2468C16.5328 6.77397 16.7913 6.92488 16.9705 7.15198C17.1496 7.37925 17.2358 7.66634 17.2117 7.95471C17.1875 8.24317 17.0551 8.51233 16.8406 8.70667C16.6261 8.90088 16.3457 9.00593 16.0564 9.00159H16.0544C15.987 9.00147 15.9188 8.99635 15.8523 8.98499H15.8533L8.49585 7.68127L8.3855 7.65588C8.13269 7.58481 7.91049 7.42855 7.75854 7.21155C7.58488 6.96345 7.51757 6.65628 7.57007 6.35803C7.62277 6.05972 7.79163 5.79445 8.03979 5.62073Z" fill="black" stroke="#EBECED" stroke-width="0.34"/>
</svg>
