<svg width="21" height="20" viewBox="0 0 21 20" fill="none" xmlns="http://www.w3.org/2000/svg">
<path d="M1.63538 10C1.63538 12.3902 2.58486 14.6824 4.27495 16.3725C5.96505 18.0626 8.25731 19.0121 10.6475 19.0121C13.0376 19.0121 15.3299 18.0626 17.02 16.3725C18.7101 14.6824 19.6595 12.3902 19.6595 10C19.6595 7.60985 18.7101 5.31759 17.02 3.62749C15.3299 1.9374 13.0376 0.987915 10.6475 0.987915C8.25731 0.987915 5.96505 1.9374 4.27495 3.62749C2.58486 5.31759 1.63538 7.60985 1.63538 10Z" stroke="black" stroke-width="1.5" stroke-linejoin="round"/>
<path d="M6.78516 10C6.78516 7.60985 7.19208 5.31759 7.9164 3.62749C8.64073 1.9374 9.62313 0.987915 10.6475 0.987915C11.6718 0.987915 12.6542 1.9374 13.3786 3.62749C14.1029 5.31759 14.5098 7.60985 14.5098 10C14.5098 12.3902 14.1029 14.6824 13.3786 16.3725C12.6542 18.0626 11.6718 19.0121 10.6475 19.0121C9.62313 19.0121 8.64073 18.0626 7.9164 16.3725C7.19208 14.6824 6.78516 12.3902 6.78516 10Z" stroke="black" stroke-width="1.5" stroke-linejoin="round"/>
<path d="M2.27905 13.004H19.0158M2.27905 6.99597H19.0158" stroke="black" stroke-width="1.5" stroke-linecap="round"/>
</svg>
