<svg width="3834" height="992" viewBox="0 0 3834 992" fill="none" xmlns="http://www.w3.org/2000/svg">
<path d="M533.902 271.187C533.902 271.187 217.45 235.92 222.481 286.022C226.732 328.357 453.11 328.357 453.11 328.357C530.057 338.357 533.902 353.737 533.902 405.18V516.264C533.902 625.507 413.577 714.066 266.951 714.066C120.324 714.066 0 625.507 0 516.264V440.529C0 440.529 275.314 466.156 275.314 424.088C275.314 390.062 151.137 392.7 103.661 394.953C91.5523 395.527 79.3841 395.403 67.3542 393.907C4.17402 386.053 0 377.116 0 318.391V197.802C0 88.559 120.324 0 266.951 0C413.577 0 533.902 88.5591 533.902 197.802V271.187Z" fill="black"/>
<path d="M865.33 712.224C699.634 712.224 581.123 591.536 581.123 422.573C581.123 251.416 696.342 131.825 862.038 131.825C1034.32 131.825 1141.86 244.833 1141.86 423.67V466.46L794.841 468.371C767.647 468.521 745.553 493.419 757.685 517.758C777.024 556.56 813.562 575.079 868.622 575.079C932.267 575.079 977.258 552.038 989.328 512.54H1144.05C1124.3 634.325 1015.66 712.224 865.33 712.224ZM863.136 268.97C796.199 268.97 758.89 298.594 745.722 364.424L929.511 362.031C954.156 361.71 975.553 340.409 964.306 318.478C948.051 286.783 912.141 268.97 863.136 268.97Z" fill="black"/>
<path d="M1183.79 428.059C1183.79 261.29 1292.43 144.991 1447.15 144.991C1496.88 144.991 1539.79 157.663 1571.65 179.433C1587.91 190.543 1616.32 183.089 1619.43 163.643H1778.54V677.115C1778.54 873.506 1665.52 992 1477.88 992C1309.99 992 1196.96 896.547 1181.6 740.75H1352.78C1356.07 802.191 1402.16 838.397 1476.78 838.397C1557.98 838.397 1609.56 790.122 1609.56 712.224C1609.56 688.073 1574.63 672.861 1552.75 683.075C1521.96 697.441 1484.52 705.641 1443.86 705.641C1290.23 705.641 1183.79 592.633 1183.79 428.059ZM1353.88 423.67C1353.88 502.666 1406.55 558.621 1481.17 558.621C1557.98 558.621 1609.56 504.86 1609.56 423.67C1609.56 343.578 1557.98 292.011 1480.07 292.011C1405.45 292.011 1353.88 345.772 1353.88 423.67Z" fill="black"/>
<path d="M1996.71 712.224L1820.04 163.643H1997.8L2048.28 342.48C2056.28 371.157 2112.87 370.883 2121.8 342.48L2177.76 163.643H2351.14L2402.72 342.48C2411.01 370.664 2470.57 370.786 2478.43 342.48L2531.1 163.643H2709.97L2517.94 712.224H2361.02L2308.35 537.775C2280.91 447.808 2266.65 383.075 2263.36 360.035C2258.97 383.075 2249.09 425.865 2213.98 541.067L2161.3 712.224H1996.71Z" fill="black"/>
<path d="M2902.73 712.224C2786.41 712.224 2713.99 644.2 2713.99 536.678C2713.99 435.739 2785.31 373.201 2916.99 363.327L3041.13 353.574C3057.78 352.267 3070.62 338.376 3070.62 321.677C3070.62 267.916 3037.7 260.193 2977.35 260.193C2906.02 260.193 2867.61 287.622 2867.61 336.995H2727.16C2727.16 213.015 2829.21 131.825 2986.12 131.825C3145.24 131.825 3235.22 220.695 3235.22 377.59V712.224H3085.98C3083.26 690.742 3034.65 676.661 3015.44 686.643C2984.5 702.712 2944.91 712.224 2902.73 712.224ZM2961.98 587.147C3026.73 587.147 3071.72 555.33 3071.72 492.792C3071.72 476.878 3058.06 464.393 3042.21 465.816L2986.12 470.848C2912.6 477.431 2886.27 493.889 2886.27 528.998C2886.27 568.496 2910.41 587.147 2961.98 587.147Z" fill="black"/>
<path d="M3555.25 712.224C3389.55 712.224 3271.04 591.536 3271.04 422.573C3271.04 251.416 3386.26 131.825 3551.96 131.825C3724.24 131.825 3831.77 244.833 3831.77 423.67V466.46L3484.76 468.371C3457.56 468.521 3435.47 493.419 3447.6 517.758C3466.94 556.559 3503.48 575.079 3558.54 575.079C3622.18 575.079 3667.17 552.038 3679.25 512.54H3833.97C3814.22 634.325 3705.58 712.224 3555.25 712.224ZM3553.05 268.97C3486.12 268.97 3448.81 298.594 3435.64 364.423L3619.43 362.03C3644.07 361.709 3665.47 340.409 3654.22 318.478C3637.97 286.783 3602.06 268.97 3553.05 268.97Z" fill="black"/>
</svg>
